<?xml version="1.0" standalone="no"?>
<!DOCTYPE svg PUBLIC "-//W3C//DTD SVG 20010904//EN"
 "http://www.w3.org/TR/2001/REC-SVG-20010904/DTD/svg10.dtd">
<svg version="1.0" xmlns="http://www.w3.org/2000/svg"
 width="400.000000pt" height="400.000000pt" viewBox="0 0 400.000000 400.000000"
 preserveAspectRatio="xMidYMid meet">
<metadata>
Created by potrace 1.14, written by Peter Selinger 2001-2017
</metadata>
<g transform="translate(0.000000,400.000000) scale(0.100000,-0.100000)"
fill="#000000" stroke="none">
<path d="M1312 3238 l3 -413 220 0 220 0 3 185 c1 101 7 187 12 190 5 3 114 5
242 5 l233 0 1 -30 c1 -16 -2 -39 -7 -50 -8 -23 -58 -230 -94 -395 -14 -63
-34 -153 -45 -200 -11 -47 -25 -105 -30 -130 -5 -25 -20 -90 -33 -145 -14 -55
-37 -154 -51 -220 -24 -109 -45 -198 -91 -385 -9 -36 -27 -117 -41 -180 -13
-63 -31 -140 -39 -170 -8 -30 -21 -89 -30 -130 -26 -119 -66 -291 -81 -345 -7
-27 -25 -106 -39 -175 -14 -69 -30 -136 -35 -150 -5 -14 -12 -46 -16 -72 l-6
-48 240 0 240 0 10 27 c5 16 17 64 26 108 15 73 44 199 96 420 10 44 26 114
35 155 8 41 20 89 25 105 5 17 16 66 25 110 9 44 27 125 40 180 44 185 84 359
105 455 11 52 32 142 46 200 13 58 27 119 29 137 3 17 9 42 14 55 5 13 16 64
26 113 9 50 23 108 30 130 7 23 19 70 25 105 6 36 22 110 36 165 14 55 34 141
44 190 11 50 26 117 34 150 12 44 16 114 16 263 l0 202 -720 0 -720 0 2 -412z"/>
</g>
</svg>
