<?xml version="1.0" standalone="no"?>
<!DOCTYPE svg PUBLIC "-//W3C//DTD SVG 20010904//EN"
 "http://www.w3.org/TR/2001/REC-SVG-20010904/DTD/svg10.dtd">
<svg version="1.0" xmlns="http://www.w3.org/2000/svg"
 width="307.000000pt" height="307.000000pt" viewBox="0 0 307.000000 307.000000"
 preserveAspectRatio="xMidYMid meet">
<metadata>
Created by potrace 1.14, written by Peter Selinger 2001-2017
</metadata>
<g transform="translate(0.000000,307.000000) scale(0.100000,-0.100000)"
fill="#000000" stroke="none">
<path d="M2355 2841 c-51 -32 -698 -691 -757 -771 -115 -157 -194 -321 -243
-503 -30 -112 -31 -156 -5 -190 39 -50 73 -52 206 -12 65 20 164 58 220 84
204 98 245 131 672 555 358 357 392 394 392 424 0 18 -6 45 -14 60 -8 15 -93
105 -189 200 -166 163 -176 172 -213 172 -22 0 -52 -9 -69 -19z m-92 -722
c-264 -262 -335 -327 -419 -382 -83 -55 -218 -127 -239 -127 -13 0 -2 33 40
120 82 167 131 226 459 558 l310 312 84 -82 83 -83 -318 -316z"/>
<path d="M294 2386 l-34 -34 0 -986 c0 -1084 -3 -1028 60 -1061 25 -13 152
-15 1005 -15 1072 0 1017 -3 1050 60 13 25 15 107 15 582 0 505 -1 556 -17
578 -27 39 -45 49 -90 50 -33 0 -50 -6 -75 -29 l-33 -29 -3 -496 -3 -496 -844
0 -845 0 0 850 0 850 449 0 c434 0 449 1 474 20 38 30 52 80 34 123 -30 70 -3
67 -585 67 l-524 0 -34 -34z"/>
<path d="M914 1492 c-49 -39 -57 -100 -21 -148 44 -60 348 -392 363 -398 42
-16 86 -6 120 28 36 36 44 78 22 119 -17 32 -355 404 -374 411 -30 12 -89 5
-110 -12z"/>
</g>
</svg>
