<?xml version="1.0" standalone="no"?>
<!DOCTYPE svg PUBLIC "-//W3C//DTD SVG 20010904//EN"
 "http://www.w3.org/TR/2001/REC-SVG-20010904/DTD/svg10.dtd">
<svg version="1.0" xmlns="http://www.w3.org/2000/svg"
 width="384.000000pt" height="384.000000pt" viewBox="0 0 384.000000 384.000000"
 preserveAspectRatio="xMidYMid meet">
<metadata>
Created by potrace 1.14, written by Peter Selinger 2001-2017
</metadata>
<g transform="translate(0.000000,384.000000) scale(0.100000,-0.100000)"
fill="#000000" stroke="none">
<path d="M1267 3503 c-4 -3 -7 -183 -7 -400 l0 -393 213 2 212 3 5 180 5 180
228 3 c261 3 249 7 223 -86 -8 -31 -20 -79 -25 -107 -14 -70 -37 -170 -54
-235 -8 -30 -22 -93 -32 -140 -9 -47 -23 -107 -31 -135 -7 -27 -23 -93 -35
-145 -22 -102 -78 -342 -111 -480 -11 -47 -22 -94 -24 -105 -2 -11 -15 -69
-29 -130 -14 -60 -30 -128 -35 -150 -11 -50 -74 -321 -130 -560 -23 -99 -52
-227 -65 -285 -12 -58 -25 -116 -29 -128 l-7 -22 235 0 c215 0 235 1 240 18 4
13 36 158 41 182 2 9 38 164 71 305 18 77 42 185 53 240 12 55 25 114 31 130
5 17 23 95 40 175 17 80 35 159 40 175 8 24 55 231 75 330 2 11 9 38 14 60 5
22 17 74 26 115 22 98 68 298 111 480 19 80 43 186 54 235 11 50 31 140 45
200 23 100 25 126 23 300 l-3 190 -681 3 c-374 1 -684 -1 -687 -5z"/>
</g>
</svg>
